FFmpeg version SVN-r25716, Copyright (c) 2000-2010 the FFmpeg developers  built on Nov 10 2010 12:23:18 with gcc 4.1.2 20080704 (Red Hat 4.1.2-48)  configuration: --enable-libmp3lame --enable-shared --disable-mmx --arch=x86_64  libavutil     50.33. 0 / 50.33. 0  libavcore      0.12. 1 /  0.12. 1  libavcodec    52.94. 4 / 52.94. 4  libavformat   52.84. 0 / 52.84. 0  libavdevice   52. 2. 2 / 52. 2. 2  libavfilter    1.59. 0 /  1.59. 0  libswscale     0.12. 0 /  0.12. 0Input #0, avi, from '/RAID10/data/converted_video_files/47522.avi':  Duration: 00:00:04.50, start: 0.000000, bitrate: 8003 kb/s    Stream #0.0: Video: msvideo1, rgb555le, 512x512, 30 tbr, 30 tbn, 30 tbc[buffer @ 0x5fcd4e0] w:512 h:512 pixfmt:rgb555le[ffsink @ 0x5fcb170] auto-inserting filter 'auto-inserted scaler 0' between the filter 'src' and the filter 'out'[scale @ 0x5fcb490] w:512 h:512 fmt:rgb555le -> w:512 h:512 fmt:yuv420p flags:0x4Output #0, flv, to '/RAID10/data/converted_video_files/47522.flv':  Metadata:    encoder         : Lavf52.84.0    Stream #0.0: Video: flv, yuv420p, 512x512, q=2-31, 600 kb/s, 1k tbn, 24 tbcStream mapping:  Stream #0.0 -> #0.0Press [q] to stop encodingframe=   27 fps=  0 q=10.9 size=     238kB time=1.12 bitrate=1732.7kbits/s dup=0 drop=6    frame=   62 fps= 60 q=10.3 size=     347kB time=2.58 bitrate=1102.0kbits/s dup=0 drop=15    frame=   99 fps= 63 q=10.3 size=     457kB time=4.12 bitrate= 907.0kbits/s dup=0 drop=24    frame=  108 fps= 60 q=9.9 Lsize=     476kB time=4.50 bitrate= 865.7kbits/s dup=0 drop=27    video:474kB audio:0kB global headers:0kB muxing overhead 0.399580%